<?xml version="1.0" standalone="no"?><!-- Generator: Gravit.io --><svg xmlns="http://www.w3.org/2000/svg" xmlns:xlink="http://www.w3.org/1999/xlink" style="isolation:isolate" viewBox="0 0 459.742 79.88" width="459.742" height="79.88"><defs><clipPath id="_clipPath_zYKyKMgTPKbixCo8yEGLEgGy2DWXCGBp"><rect width="459.742" height="79.88"/></clipPath></defs><g clip-path="url(#_clipPath_zYKyKMgTPKbixCo8yEGLEgGy2DWXCGBp)"><g><g><path d=" M 44.182 1.756 L 44.182 1.756 C 41.841 -0.585 38.039 -0.585 35.697 1.756 L 1.756 35.697 C -0.585 38.039 -0.585 41.841 1.756 44.183 L 35.698 78.123 C 38.039 80.465 41.841 80.465 44.183 78.123 L 44.183 78.123 C 46.524 75.782 46.524 71.98 44.183 69.638 L 17.312 42.768 C 15.751 41.207 15.751 38.673 17.312 37.112 L 44.182 10.241 C 46.524 7.9 46.524 4.098 44.182 1.756 Z " fill="rgb(242,0,77)"/><path d=" M 56.304 13.878 L 78.124 35.697 C 80.465 38.039 80.465 41.841 78.124 44.183 L 56.304 66.002 C 53.963 68.343 50.161 68.343 47.819 66.002 L 26 44.183 C 23.658 41.841 23.658 38.039 26 35.697 L 47.819 13.878 C 50.161 11.536 53.963 11.536 56.304 13.878 Z " fill="rgb(6,1,113)"/></g><g><path d=" M 120.354 18.448 L 120.354 18.448 Q 116.322 18.448 113.874 21.112 L 113.874 21.112 L 113.874 21.112 Q 111.426 23.776 111.426 28.168 L 111.426 28.168 L 111.426 30.112 L 118.77 30.112 L 118.77 30.112 Q 120.282 30.112 121.218 30.976 L 121.218 30.976 L 121.218 30.976 Q 122.154 31.84 122.154 33.28 L 122.154 33.28 L 122.154 33.28 Q 122.154 34.576 121.218 35.44 L 121.218 35.44 L 121.218 35.44 Q 120.282 36.304 118.77 36.304 L 118.77 36.304 L 111.426 36.304 L 111.426 64.384 L 111.426 64.384 Q 111.426 66.04 110.418 67.048 L 110.418 67.048 L 110.418 67.048 Q 109.41 68.056 107.61 68.056 L 107.61 68.056 L 107.61 68.056 Q 106.17 68.056 105.126 67.048 L 105.126 67.048 L 105.126 67.048 Q 104.082 66.04 104.082 64.384 L 104.082 64.384 L 104.082 36.304 L 100.986 36.304 L 100.986 36.304 Q 99.474 36.304 98.538 35.44 L 98.538 35.44 L 98.538 35.44 Q 97.602 34.576 97.602 33.28 L 97.602 33.28 L 97.602 33.28 Q 97.602 31.84 98.538 30.976 L 98.538 30.976 L 98.538 30.976 Q 99.474 30.112 100.986 30.112 L 100.986 30.112 L 104.082 30.112 L 104.082 28.888 L 104.082 28.888 Q 104.082 23.776 106.134 19.924 L 106.134 19.924 L 106.134 19.924 Q 108.186 16.072 111.894 13.948 L 111.894 13.948 L 111.894 13.948 Q 115.602 11.824 120.354 11.824 L 120.354 11.824 L 120.354 11.824 Q 121.938 11.824 122.982 12.76 L 122.982 12.76 L 122.982 12.76 Q 124.026 13.696 124.026 15.136 L 124.026 15.136 L 124.026 15.136 Q 124.026 16.576 122.982 17.512 L 122.982 17.512 L 122.982 17.512 Q 121.938 18.448 120.354 18.448 L 120.354 18.448 Z " fill="rgb(6,1,113)"/><path d=" M 149.082 28.24 L 149.082 28.24 Q 152.898 28.24 155.058 29.392 L 155.058 29.392 L 155.058 29.392 Q 157.218 30.544 157.218 32.272 L 157.218 32.272 L 157.218 32.272 Q 157.218 32.776 157.146 32.992 L 157.146 32.992 L 157.146 32.992 Q 156.498 35.296 154.266 35.296 L 154.266 35.296 L 154.266 35.296 Q 153.906 35.296 153.186 35.152 L 153.186 35.152 L 153.186 35.152 Q 150.306 34.648 148.506 34.648 L 148.506 34.648 L 148.506 34.648 Q 143.322 34.648 140.154 37.024 L 140.154 37.024 L 140.154 37.024 Q 136.986 39.4 136.986 43.432 L 136.986 43.432 L 136.986 64.456 L 136.986 64.456 Q 136.986 66.184 136.086 67.12 L 136.086 67.12 L 136.086 67.12 Q 135.186 68.056 133.386 68.056 L 133.386 68.056 L 133.386 68.056 Q 131.658 68.056 130.722 67.156 L 130.722 67.156 L 130.722 67.156 Q 129.786 66.256 129.786 64.456 L 129.786 64.456 L 129.786 32.272 L 129.786 32.272 Q 129.786 30.544 130.722 29.608 L 130.722 29.608 L 130.722 29.608 Q 131.658 28.672 133.386 28.672 L 133.386 28.672 L 133.386 28.672 Q 136.986 28.672 136.986 32.272 L 136.986 32.272 L 136.986 33.64 L 136.986 33.64 Q 139.146 31.12 142.314 29.68 L 142.314 29.68 L 142.314 29.68 Q 145.482 28.24 149.082 28.24 L 149.082 28.24 Z " fill="rgb(6,1,113)"/><path d=" M 179.634 68.056 Q 173.874 68.056 169.338 65.5 Q 164.802 62.944 162.282 58.408 Q 159.762 53.872 159.762 48.112 Q 159.762 42.28 162.282 37.744 Q 164.802 33.208 169.338 30.652 Q 173.874 28.096 179.634 28.096 Q 185.322 28.096 189.822 30.652 Q 194.322 33.208 196.878 37.744 Q 199.434 42.28 199.434 48.112 Q 199.434 53.872 196.914 58.408 Q 194.394 62.944 189.894 65.5 Q 185.394 68.056 179.634 68.056 Z  M 179.635 61.577 Q 183.307 61.577 186.223 59.849 Q 189.139 58.121 190.759 55.061 Q 192.379 52.001 192.379 48.113 Q 192.379 44.225 190.759 41.129 Q 189.139 38.033 186.223 36.305 Q 183.307 34.577 179.635 34.577 Q 175.963 34.577 173.047 36.305 Q 170.131 38.033 168.475 41.129 Q 166.819 44.225 166.819 48.113 Q 166.819 52.001 168.475 55.061 Q 170.131 58.121 173.047 59.849 Q 175.963 61.577 179.635 61.577 Z " fill-rule="evenodd" fill="rgb(6,1,113)"/><path d=" M 225.962 28.24 L 225.962 28.24 Q 230.93 28.24 234.89 30.4 L 234.89 30.4 L 234.89 30.4 Q 238.85 32.56 241.082 36.7 L 241.082 36.7 L 241.082 36.7 Q 243.314 40.84 243.314 46.672 L 243.314 46.672 L 243.314 64.384 L 243.314 64.384 Q 243.314 65.968 242.27 67.012 L 242.27 67.012 L 242.27 67.012 Q 241.226 68.056 239.642 68.056 L 239.642 68.056 L 239.642 68.056 Q 238.058 68.056 237.014 67.012 L 237.014 67.012 L 237.014 67.012 Q 235.97 65.968 235.97 64.384 L 235.97 64.384 L 235.97 46.672 L 235.97 46.672 Q 235.97 40.84 232.838 37.852 L 232.838 37.852 L 232.838 37.852 Q 229.706 34.864 224.522 34.864 L 224.522 34.864 L 224.522 34.864 Q 221.498 34.864 219.014 36.088 L 219.014 36.088 L 219.014 36.088 Q 216.53 37.312 215.126 39.4 L 215.126 39.4 L 215.126 39.4 Q 213.722 41.488 213.722 44.08 L 213.722 44.08 L 213.722 64.384 L 213.722 64.384 Q 213.722 65.968 212.714 67.012 L 212.714 67.012 L 212.714 67.012 Q 211.706 68.056 210.05 68.056 L 210.05 68.056 L 210.05 68.056 Q 208.466 68.056 207.422 67.012 L 207.422 67.012 L 207.422 67.012 Q 206.378 65.968 206.378 64.384 L 206.378 64.384 L 206.378 32.272 L 206.378 32.272 Q 206.378 30.616 207.422 29.608 L 207.422 29.608 L 207.422 29.608 Q 208.466 28.6 210.05 28.6 L 210.05 28.6 L 210.05 28.6 Q 211.706 28.6 212.714 29.608 L 212.714 29.608 L 212.714 29.608 Q 213.722 30.616 213.722 32.272 L 213.722 32.272 L 213.722 33.064 L 213.722 33.064 Q 216.026 30.76 219.194 29.5 L 219.194 29.5 L 219.194 29.5 Q 222.362 28.24 225.962 28.24 L 225.962 28.24 Z " fill="rgb(6,1,113)"/><path d=" M 272.258 60.856 L 272.258 60.856 Q 273.554 60.856 274.454 61.864 L 274.454 61.864 L 274.454 61.864 Q 275.354 62.872 275.354 64.456 L 275.354 64.456 L 275.354 64.456 Q 275.354 66.04 274.166 67.048 L 274.166 67.048 L 274.166 67.048 Q 272.978 68.056 271.106 68.056 L 271.106 68.056 L 269.81 68.056 L 269.81 68.056 Q 266.282 68.056 263.366 66.22 L 263.366 66.22 L 263.366 66.22 Q 260.45 64.384 258.794 61.216 L 258.794 61.216 L 258.794 61.216 Q 257.138 58.048 257.138 54.088 L 257.138 54.088 L 257.138 36.304 L 253.826 36.304 L 253.826 36.304 Q 252.314 36.304 251.378 35.44 L 251.378 35.44 L 251.378 35.44 Q 250.442 34.576 250.442 33.28 L 250.442 33.28 L 250.442 33.28 Q 250.442 31.84 251.378 30.976 L 251.378 30.976 L 251.378 30.976 Q 252.314 30.112 253.826 30.112 L 253.826 30.112 L 257.138 30.112 L 257.138 19.744 L 257.138 19.744 Q 257.138 18.16 258.146 17.152 L 258.146 17.152 L 258.146 17.152 Q 259.154 16.144 260.738 16.144 L 260.738 16.144 L 260.738 16.144 Q 262.322 16.144 263.33 17.152 L 263.33 17.152 L 263.33 17.152 Q 264.338 18.16 264.338 19.744 L 264.338 19.744 L 264.338 30.112 L 270.458 30.112 L 270.458 30.112 Q 271.97 30.112 272.906 30.976 L 272.906 30.976 L 272.906 30.976 Q 273.842 31.84 273.842 33.28 L 273.842 33.28 L 273.842 33.28 Q 273.842 34.576 272.906 35.44 L 272.906 35.44 L 272.906 35.44 Q 271.97 36.304 270.458 36.304 L 270.458 36.304 L 264.338 36.304 L 264.338 54.088 L 264.338 54.088 Q 264.338 56.968 265.922 58.912 L 265.922 58.912 L 265.922 58.912 Q 267.506 60.856 269.81 60.856 L 269.81 60.856 L 272.258 60.856 Z " fill="rgb(6,1,113)"/><path d=" M 289.582 30.376 C 288.892 30.906 288.242 31.486 287.632 32.106 C 287.022 32.736 286.452 33.406 285.932 34.106 C 285.402 34.836 284.912 35.606 284.482 36.406 C 283.632 37.976 282.982 39.646 282.572 41.376 C 282.112 43.276 281.882 45.216 281.882 47.166 C 281.882 48.146 281.942 49.126 282.062 50.106 C 282.172 51.026 282.342 51.936 282.572 52.826 C 282.792 53.696 283.072 54.546 283.402 55.386 C 283.732 56.216 284.122 57.026 284.562 57.806 C 285.002 58.596 285.502 59.366 286.042 60.096 C 286.572 60.796 287.152 61.466 287.772 62.096 C 288.392 62.716 289.052 63.296 289.752 63.836 C 290.472 64.386 291.232 64.886 292.022 65.336 C 292.792 65.776 293.592 66.166 294.422 66.506 C 295.252 66.846 296.102 67.126 296.972 67.346 C 297.872 67.586 298.792 67.756 299.722 67.876 C 300.712 67.996 301.702 68.056 302.702 68.056 C 304.062 68.056 305.422 67.936 306.762 67.706 C 307.982 67.496 309.162 67.166 310.312 66.726 C 311.412 66.306 312.472 65.786 313.472 65.156 C 314.492 64.516 315.452 63.776 316.342 62.946 C 316.752 62.546 317.072 62.076 317.312 61.546 C 317.532 61.056 317.642 60.516 317.642 59.976 C 317.642 59.646 317.602 59.306 317.522 58.986 C 317.452 58.666 317.332 58.346 317.192 58.046 C 317.032 57.726 316.832 57.426 316.602 57.146 C 316.352 56.836 316.062 56.546 315.742 56.286 C 315.342 55.976 314.892 55.736 314.412 55.566 C 313.952 55.406 313.472 55.326 312.992 55.326 C 312.402 55.326 311.822 55.436 311.272 55.636 C 310.632 55.886 310.022 56.216 309.472 56.626 C 309.082 56.956 308.652 57.256 308.202 57.506 C 307.732 57.766 307.242 57.986 306.732 58.156 C 306.152 58.356 305.562 58.496 304.952 58.586 C 304.212 58.696 303.452 58.756 302.702 58.756 C 301.642 58.756 300.592 58.626 299.562 58.356 C 298.662 58.126 297.792 57.756 296.992 57.286 C 296.192 56.806 295.452 56.226 294.812 55.546 C 294.152 54.846 293.592 54.066 293.142 53.216 C 292.692 52.356 292.342 51.446 292.122 50.496 C 291.872 49.406 291.742 48.286 291.742 47.166 C 291.742 46.216 291.822 45.276 291.972 44.336 C 292.102 43.576 292.302 42.826 292.572 42.106 C 292.812 41.456 293.112 40.826 293.482 40.236 C 293.832 39.666 294.242 39.126 294.702 38.636 C 295.172 38.126 295.692 37.676 296.252 37.276 C 296.782 36.906 297.352 36.586 297.962 36.326 C 298.592 36.056 299.252 35.866 299.932 35.736 C 300.722 35.586 301.542 35.506 302.352 35.506 C 303.132 35.506 303.922 35.576 304.692 35.716 C 305.312 35.836 305.912 36.016 306.492 36.266 C 307.062 36.506 307.612 36.816 308.112 37.176 C 308.722 37.616 309.272 38.106 309.782 38.656 C 310.032 38.936 310.302 39.186 310.602 39.416 C 310.892 39.626 311.202 39.816 311.532 39.966 C 311.852 40.106 312.192 40.226 312.532 40.296 C 312.892 40.366 313.262 40.406 313.622 40.406 C 314.062 40.406 314.502 40.336 314.932 40.216 C 315.342 40.086 315.732 39.896 316.082 39.646 C 316.432 39.416 316.752 39.146 317.042 38.836 C 317.312 38.566 317.542 38.256 317.732 37.916 C 317.912 37.596 318.042 37.266 318.132 36.906 C 318.222 36.556 318.272 36.196 318.272 35.826 C 318.272 35.306 318.172 34.796 317.992 34.306 C 317.802 33.826 317.542 33.396 317.192 33.016 C 316.232 31.906 315.162 30.896 313.992 29.996 C 312.922 29.176 311.752 28.476 310.522 27.906 C 309.292 27.346 308.012 26.926 306.692 26.656 C 305.262 26.356 303.812 26.206 302.352 26.206 C 301.362 26.206 300.382 26.266 299.402 26.386 C 298.482 26.496 297.582 26.676 296.692 26.906 C 295.832 27.126 294.992 27.406 294.172 27.736 C 293.362 28.066 292.572 28.456 291.802 28.886 C 291.032 29.336 290.282 29.826 289.582 30.376 Z " fill="rgb(6,1,113)"/><path d=" M 344.772 68.056 C 343.762 68.056 342.752 67.996 341.742 67.876 C 340.812 67.766 339.882 67.586 338.972 67.356 C 338.102 67.136 337.252 66.856 336.412 66.526 C 335.592 66.196 334.792 65.816 334.022 65.376 C 333.232 64.936 332.472 64.436 331.752 63.886 C 331.052 63.356 330.392 62.786 329.772 62.156 C 329.162 61.536 328.582 60.876 328.062 60.176 C 327.522 59.456 327.032 58.696 326.592 57.906 C 326.162 57.136 325.782 56.336 325.462 55.516 C 325.132 54.686 324.862 53.836 324.642 52.966 C 324.412 52.056 324.242 51.126 324.132 50.196 C 324.012 49.186 323.952 48.176 323.952 47.166 C 323.952 46.136 324.012 45.116 324.132 44.096 C 324.242 43.156 324.412 42.216 324.642 41.296 C 324.862 40.426 325.142 39.576 325.472 38.736 C 325.792 37.916 326.162 37.126 326.592 36.356 C 327.032 35.566 327.522 34.806 328.062 34.086 C 328.582 33.386 329.162 32.726 329.772 32.106 C 330.392 31.476 331.052 30.906 331.752 30.376 C 332.472 29.826 333.232 29.326 334.022 28.886 C 334.792 28.446 335.592 28.066 336.412 27.736 C 337.252 27.406 338.102 27.126 338.972 26.906 C 339.882 26.676 340.812 26.496 341.742 26.386 C 342.752 26.266 343.762 26.206 344.772 26.206 C 345.772 26.206 346.772 26.266 347.762 26.386 C 348.682 26.496 349.602 26.676 350.502 26.906 C 351.362 27.126 352.212 27.406 353.042 27.736 C 353.862 28.066 354.652 28.456 355.422 28.886 C 356.202 29.326 356.952 29.826 357.662 30.366 C 358.362 30.896 359.022 31.476 359.642 32.096 C 360.252 32.716 360.832 33.376 361.352 34.076 C 361.902 34.796 362.402 35.556 362.842 36.346 C 363.272 37.116 363.662 37.916 363.982 38.736 C 364.322 39.566 364.592 40.426 364.822 41.296 C 365.052 42.216 365.222 43.156 365.342 44.096 C 365.462 45.116 365.522 46.136 365.522 47.166 C 365.522 48.176 365.462 49.186 365.342 50.196 C 365.232 51.126 365.062 52.056 364.832 52.966 C 364.612 53.836 364.342 54.686 364.012 55.516 C 363.692 56.336 363.312 57.136 362.882 57.906 C 362.442 58.696 361.952 59.456 361.412 60.176 C 360.892 60.876 360.322 61.546 359.702 62.166 C 359.092 62.786 358.432 63.356 357.742 63.886 C 357.022 64.436 356.272 64.926 355.492 65.376 C 354.722 65.806 353.932 66.196 353.112 66.516 C 352.292 66.856 351.442 67.136 350.572 67.356 C 349.662 67.586 348.742 67.766 347.802 67.876 C 346.802 67.996 345.782 68.056 344.772 68.056 Z  M 344.772 58.756 C 343.732 58.756 342.702 58.626 341.702 58.356 C 340.802 58.126 339.932 57.766 339.132 57.286 C 338.322 56.806 337.592 56.226 336.942 55.546 C 336.272 54.846 335.702 54.056 335.242 53.206 C 334.782 52.346 334.432 51.436 334.202 50.486 C 333.942 49.396 333.812 48.286 333.812 47.166 C 333.812 46.046 333.942 44.926 334.202 43.836 C 334.432 42.876 334.782 41.956 335.242 41.086 C 335.702 40.226 336.282 39.426 336.952 38.716 C 337.592 38.036 338.332 37.456 339.132 36.976 C 339.932 36.496 340.802 36.136 341.702 35.906 C 342.702 35.636 343.732 35.506 344.772 35.506 C 345.812 35.506 346.842 35.636 347.842 35.906 C 348.742 36.136 349.612 36.496 350.412 36.976 C 351.212 37.456 351.942 38.036 352.582 38.716 C 353.242 39.416 353.812 40.216 354.262 41.076 C 354.712 41.946 355.062 42.866 355.282 43.826 C 355.532 44.926 355.662 46.046 355.662 47.166 C 355.662 48.286 355.532 49.406 355.282 50.496 C 355.062 51.446 354.712 52.356 354.262 53.216 C 353.812 54.066 353.252 54.846 352.592 55.546 C 351.952 56.226 351.212 56.806 350.412 57.286 C 349.612 57.766 348.742 58.126 347.842 58.356 C 346.842 58.626 345.812 58.756 344.772 58.756 Z " fill-rule="evenodd" fill="rgb(6,1,113)"/><path d=" M 407.702 10.106 C 408.062 10.106 408.422 10.136 408.782 10.196 C 409.112 10.256 409.442 10.346 409.752 10.476 C 410.052 10.596 410.342 10.746 410.602 10.916 C 410.872 11.096 411.122 11.296 411.352 11.526 C 411.582 11.756 411.782 12.006 411.962 12.276 C 412.132 12.536 412.282 12.826 412.402 13.126 C 412.532 13.436 412.622 13.766 412.682 14.096 C 412.742 14.456 412.772 14.816 412.772 15.176 L 412.772 47.096 C 412.772 48.076 412.712 49.056 412.592 50.036 C 412.472 50.956 412.302 51.866 412.062 52.756 C 411.832 53.636 411.552 54.486 411.212 55.316 C 410.862 56.156 410.472 56.966 410.022 57.746 C 409.562 58.546 409.052 59.306 408.502 60.036 C 407.962 60.746 407.382 61.416 406.762 62.036 C 406.142 62.666 405.482 63.246 404.782 63.786 C 404.072 64.336 403.322 64.846 402.542 65.296 C 401.772 65.746 400.972 66.146 400.142 66.486 C 399.322 66.836 398.482 67.116 397.622 67.346 C 396.732 67.586 395.832 67.756 394.922 67.876 C 393.962 67.996 392.992 68.056 392.022 68.056 C 391.052 68.056 390.092 67.996 389.132 67.876 C 388.212 67.756 387.312 67.586 386.422 67.356 C 385.552 67.126 384.702 66.836 383.872 66.496 C 383.042 66.156 382.222 65.756 381.442 65.306 C 380.642 64.846 379.882 64.336 379.152 63.786 C 378.452 63.246 377.782 62.656 377.152 62.026 C 376.532 61.396 375.952 60.726 375.422 60.026 C 374.872 59.296 374.362 58.536 373.922 57.736 C 373.472 56.956 373.082 56.146 372.742 55.316 C 372.412 54.486 372.122 53.626 371.902 52.756 C 371.672 51.866 371.492 50.956 371.382 50.036 C 371.262 49.056 371.202 48.076 371.202 47.096 C 371.202 45.196 371.422 43.296 371.862 41.446 C 372.272 39.726 372.892 38.056 373.722 36.496 C 374.142 35.686 374.622 34.916 375.142 34.176 C 375.632 33.466 376.182 32.796 376.762 32.166 C 377.342 31.546 377.962 30.966 378.612 30.436 C 379.272 29.896 379.972 29.396 380.702 28.946 C 381.432 28.496 382.192 28.106 382.972 27.756 C 383.752 27.416 384.542 27.136 385.362 26.906 C 386.192 26.676 387.042 26.496 387.902 26.386 C 388.802 26.266 389.712 26.206 390.622 26.206 C 392.062 26.206 393.502 26.366 394.912 26.676 C 396.262 26.976 397.582 27.436 398.832 28.036 C 400.082 28.636 401.262 29.366 402.342 30.226 C 402.442 30.296 402.542 30.376 402.632 30.456 L 402.632 15.176 C 402.632 14.816 402.662 14.446 402.732 14.096 C 402.792 13.756 402.882 13.426 403.012 13.116 C 403.132 12.816 403.292 12.526 403.472 12.256 C 403.662 11.986 403.872 11.736 404.102 11.506 C 404.342 11.286 404.592 11.076 404.862 10.906 C 405.132 10.726 405.422 10.586 405.712 10.466 C 406.022 10.346 406.342 10.256 406.662 10.196 C 407.012 10.136 407.352 10.106 407.702 10.106 Z  M 392.022 58.756 C 391.012 58.756 390.012 58.626 389.042 58.356 C 388.132 58.116 387.262 57.746 386.462 57.256 C 385.652 56.766 384.912 56.176 384.262 55.486 C 383.582 54.766 383.002 53.966 382.522 53.096 C 382.052 52.226 381.692 51.296 381.452 50.336 C 381.192 49.276 381.062 48.186 381.062 47.096 C 381.062 46.006 381.192 44.916 381.452 43.856 C 381.692 42.906 382.042 41.996 382.522 41.136 C 382.992 40.276 383.572 39.486 384.252 38.776 C 384.912 38.096 385.652 37.496 386.462 37.006 C 387.262 36.516 388.132 36.146 389.042 35.906 C 390.012 35.636 391.012 35.506 392.022 35.506 C 393.032 35.506 394.032 35.636 395.002 35.906 C 395.912 36.146 396.782 36.516 397.582 37.006 C 398.392 37.496 399.132 38.086 399.782 38.776 C 400.452 39.486 401.022 40.266 401.482 41.126 C 401.952 41.986 402.302 42.896 402.522 43.846 C 402.782 44.906 402.912 46.006 402.912 47.096 C 402.912 48.196 402.782 49.286 402.532 50.346 C 402.302 51.306 401.942 52.236 401.482 53.106 C 401.012 53.976 400.442 54.776 399.772 55.486 C 399.122 56.176 398.392 56.766 397.582 57.256 C 396.782 57.746 395.912 58.116 395.002 58.356 C 394.032 58.626 393.032 58.756 392.022 58.756 Z " fill-rule="evenodd" fill="rgb(6,1,113)"/><path d=" M 459.742 46.536 C 459.742 44.616 459.542 42.706 459.132 40.826 C 458.782 39.176 458.232 37.586 457.492 36.076 C 457.102 35.296 456.672 34.546 456.192 33.836 C 455.732 33.156 455.222 32.506 454.672 31.896 C 454.122 31.296 453.542 30.746 452.912 30.226 C 452.272 29.706 451.602 29.236 450.902 28.806 C 450.212 28.386 449.502 28.026 448.762 27.706 C 448.002 27.386 447.212 27.116 446.412 26.896 C 445.542 26.666 444.662 26.496 443.782 26.386 C 442.792 26.266 441.802 26.206 440.812 26.206 C 439.822 26.206 438.842 26.266 437.852 26.386 C 436.942 26.496 436.042 26.676 435.152 26.906 C 434.292 27.126 433.462 27.406 432.642 27.746 C 431.832 28.076 431.052 28.456 430.302 28.896 C 429.532 29.336 428.792 29.836 428.092 30.376 C 427.402 30.906 426.762 31.486 426.152 32.106 C 425.542 32.736 424.982 33.396 424.462 34.106 C 423.932 34.836 423.442 35.606 423.012 36.406 C 422.162 37.976 421.512 39.646 421.102 41.376 C 420.642 43.276 420.412 45.216 420.412 47.166 C 420.412 48.176 420.472 49.186 420.602 50.196 C 420.712 51.126 420.892 52.056 421.132 52.966 C 421.362 53.836 421.642 54.696 421.992 55.526 C 422.332 56.356 422.722 57.156 423.172 57.926 C 423.622 58.716 424.132 59.466 424.692 60.186 C 425.232 60.886 425.822 61.546 426.462 62.166 C 427.102 62.786 427.782 63.366 428.502 63.896 C 429.252 64.446 430.042 64.946 430.852 65.386 C 431.642 65.816 432.462 66.196 433.302 66.526 C 434.162 66.856 435.032 67.136 435.932 67.356 C 436.862 67.586 437.812 67.766 438.762 67.876 C 439.792 67.996 440.832 68.056 441.862 68.056 C 443.012 68.056 444.162 67.956 445.292 67.756 C 446.582 67.526 447.852 67.206 449.092 66.786 C 450.332 66.366 451.542 65.856 452.702 65.246 C 453.672 64.746 454.592 64.156 455.452 63.476 C 455.712 63.276 455.962 63.046 456.172 62.796 C 456.392 62.556 456.572 62.286 456.722 62.006 C 456.862 61.726 456.972 61.426 457.042 61.126 C 457.112 60.816 457.152 60.506 457.152 60.186 C 457.152 59.866 457.112 59.546 457.042 59.226 C 456.962 58.916 456.852 58.606 456.712 58.316 C 456.552 58.006 456.372 57.716 456.152 57.456 C 455.912 57.166 455.652 56.906 455.372 56.676 C 454.982 56.326 454.522 56.056 454.022 55.886 C 453.462 55.696 452.882 55.606 452.292 55.606 C 451.702 55.606 451.122 55.696 450.562 55.886 C 450.022 56.066 449.512 56.336 449.062 56.686 C 448.652 56.996 448.212 57.276 447.752 57.506 C 447.112 57.836 446.442 58.116 445.752 58.346 C 445.072 58.576 444.382 58.756 443.672 58.876 C 443.072 58.986 442.472 59.036 441.862 59.036 C 441.032 59.036 440.212 58.976 439.392 58.846 C 438.692 58.726 437.992 58.556 437.322 58.326 C 436.682 58.106 436.072 57.826 435.482 57.506 C 434.892 57.176 434.342 56.796 433.822 56.366 C 433.292 55.936 432.802 55.446 432.352 54.926 C 431.932 54.436 431.562 53.906 431.242 53.346 C 430.922 52.766 430.652 52.166 430.432 51.536 C 430.392 51.396 430.342 51.256 430.302 51.116 L 455.022 51.116 C 455.652 51.116 456.272 51.006 456.862 50.776 C 457.422 50.566 457.932 50.236 458.372 49.826 C 458.592 49.616 458.792 49.376 458.962 49.126 C 459.132 48.886 459.272 48.626 459.392 48.346 C 459.512 48.066 459.592 47.776 459.652 47.476 C 459.712 47.166 459.742 46.856 459.742 46.536 Z  M 440.813 35.227 C 441.513 35.227 442.213 35.287 442.913 35.407 C 443.483 35.507 444.043 35.667 444.583 35.877 C 445.073 36.067 445.553 36.307 446.003 36.597 C 446.453 36.887 446.873 37.227 447.253 37.597 C 447.643 37.987 448.003 38.397 448.323 38.847 C 448.653 39.307 448.943 39.787 449.193 40.297 C 449.463 40.857 449.683 41.447 449.863 42.047 C 449.903 42.197 449.943 42.357 449.983 42.517 L 430.403 42.517 C 430.443 42.397 430.483 42.277 430.523 42.157 C 430.733 41.557 430.983 40.967 431.293 40.417 C 431.583 39.897 431.913 39.397 432.283 38.937 C 432.653 38.477 433.063 38.047 433.513 37.657 C 433.933 37.277 434.403 36.947 434.893 36.657 C 435.403 36.357 435.943 36.107 436.493 35.907 C 437.123 35.687 437.763 35.517 438.413 35.417 C 439.203 35.287 440.013 35.227 440.813 35.227 Z " fill-rule="evenodd" fill="rgb(6,1,113)"/></g></g></g></svg>