<?xml version="1.0" standalone="no"?><!-- Generator: Gravit.io --><svg xmlns="http://www.w3.org/2000/svg" xmlns:xlink="http://www.w3.org/1999/xlink" style="isolation:isolate" viewBox="0 0 100.305 73.567" width="100.305" height="73.567"><defs><clipPath id="_clipPath_G8bB7FPdeh2zxomlkxOBPjch45sbDJAM"><rect width="100.305" height="73.567"/></clipPath></defs><g clip-path="url(#_clipPath_G8bB7FPdeh2zxomlkxOBPjch45sbDJAM)"><g><g><path d=" M 10.89 16.533 L 8.778 16.533 L 8.778 16.533 Q 8.459 16.533 8.244 16.39 L 8.244 16.39 L 8.244 16.39 Q 8.03 16.247 7.942 15.961 L 7.942 15.961 L 7.678 15.092 L 7.678 15.092 Q 7.337 15.455 6.963 15.752 L 6.963 15.752 L 6.963 15.752 Q 6.589 16.049 6.154 16.264 L 6.154 16.264 L 6.154 16.264 Q 5.72 16.478 5.219 16.593 L 5.219 16.593 L 5.219 16.593 Q 4.719 16.709 4.136 16.709 L 4.136 16.709 L 4.136 16.709 Q 3.245 16.709 2.486 16.313 L 2.486 16.313 L 2.486 16.313 Q 1.727 15.917 1.177 15.169 L 1.177 15.169 L 1.177 15.169 Q 0.627 14.421 0.313 13.337 L 0.313 13.337 L 0.313 13.337 Q 0 12.254 0 10.868 L 0 10.868 L 0 10.868 Q 0 9.592 0.352 8.497 L 0.352 8.497 L 0.352 8.497 Q 0.704 7.403 1.347 6.605 L 1.347 6.605 L 1.347 6.605 Q 1.991 5.808 2.893 5.357 L 2.893 5.357 L 2.893 5.357 Q 3.795 4.906 4.884 4.906 L 4.884 4.906 L 4.884 4.906 Q 5.764 4.906 6.375 5.164 L 6.375 5.164 L 6.375 5.164 Q 6.985 5.423 7.48 5.841 L 7.48 5.841 L 7.48 0.066 L 10.89 0.066 L 10.89 16.533 Z  M 5.324 14.091 L 5.324 14.091 L 5.324 14.091 Q 5.698 14.091 6 14.02 L 6 14.02 L 6 14.02 Q 6.303 13.948 6.556 13.816 L 6.556 13.816 L 6.556 13.816 Q 6.809 13.684 7.034 13.486 L 7.034 13.486 L 7.034 13.486 Q 7.26 13.288 7.48 13.024 L 7.48 13.024 L 7.48 8.184 L 7.48 8.184 Q 7.084 7.755 6.638 7.585 L 6.638 7.585 L 6.638 7.585 Q 6.193 7.414 5.698 7.414 L 5.698 7.414 L 5.698 7.414 Q 5.225 7.414 4.829 7.601 L 4.829 7.601 L 4.829 7.601 Q 4.433 7.788 4.142 8.2 L 4.142 8.2 L 4.142 8.2 Q 3.85 8.613 3.685 9.273 L 3.685 9.273 L 3.685 9.273 Q 3.52 9.933 3.52 10.868 L 3.52 10.868 L 3.52 10.868 Q 3.52 11.77 3.652 12.386 L 3.652 12.386 L 3.652 12.386 Q 3.784 13.002 4.02 13.382 L 4.02 13.382 L 4.02 13.382 Q 4.257 13.761 4.587 13.926 L 4.587 13.926 L 4.587 13.926 Q 4.917 14.091 5.324 14.091 Z  M 22.968 16.533 L 21.406 16.533 L 21.406 16.533 Q 20.922 16.533 20.674 16.401 L 20.674 16.401 L 20.674 16.401 Q 20.427 16.269 20.262 15.851 L 20.262 15.851 L 20.02 15.224 L 20.02 15.224 Q 19.591 15.587 19.195 15.862 L 19.195 15.862 L 19.195 15.862 Q 18.799 16.137 18.375 16.33 L 18.375 16.33 L 18.375 16.33 Q 17.952 16.522 17.474 16.616 L 17.474 16.616 L 17.474 16.616 Q 16.995 16.709 16.412 16.709 L 16.412 16.709 L 16.412 16.709 Q 15.631 16.709 14.993 16.505 L 14.993 16.505 L 14.993 16.505 Q 14.355 16.301 13.909 15.903 L 13.909 15.903 L 13.909 15.903 Q 13.464 15.506 13.222 14.916 L 13.222 14.916 L 13.222 14.916 Q 12.98 14.325 12.98 13.553 L 12.98 13.553 L 12.98 13.553 Q 12.98 12.946 13.288 12.306 L 13.288 12.306 L 13.288 12.306 Q 13.596 11.666 14.355 11.141 L 14.355 11.141 L 14.355 11.141 Q 15.114 10.617 16.401 10.264 L 16.401 10.264 L 16.401 10.264 Q 17.688 9.911 19.646 9.911 L 19.646 9.911 L 19.646 9.423 L 19.646 9.423 Q 19.646 8.412 19.233 7.963 L 19.233 7.963 L 19.233 7.963 Q 18.821 7.513 18.062 7.513 L 18.062 7.513 L 18.062 7.513 Q 17.457 7.513 17.072 7.645 L 17.072 7.645 L 17.072 7.645 Q 16.687 7.777 16.385 7.942 L 16.385 7.942 L 16.385 7.942 Q 16.082 8.107 15.796 8.239 L 15.796 8.239 L 15.796 8.239 Q 15.51 8.371 15.114 8.371 L 15.114 8.371 L 15.114 8.371 Q 14.762 8.371 14.514 8.2 L 14.514 8.2 L 14.514 8.2 Q 14.267 8.03 14.124 7.777 L 14.124 7.777 L 13.508 6.71 L 13.508 6.71 Q 14.542 5.797 15.801 5.352 L 15.801 5.352 L 15.801 5.352 Q 17.061 4.906 18.502 4.906 L 18.502 4.906 L 18.502 4.906 Q 19.536 4.906 20.366 5.242 L 20.366 5.242 L 20.366 5.242 Q 21.197 5.577 21.774 6.176 L 21.774 6.176 L 21.774 6.176 Q 22.352 6.776 22.66 7.601 L 22.66 7.601 L 22.66 7.601 Q 22.968 8.426 22.968 9.405 L 22.968 9.405 L 22.968 16.533 Z  M 17.49 14.454 L 17.49 14.454 L 17.49 14.454 Q 18.15 14.454 18.645 14.223 L 18.645 14.223 L 18.645 14.223 Q 19.14 13.992 19.646 13.475 L 19.646 13.475 L 19.646 11.913 L 19.646 11.913 Q 18.623 11.913 17.963 12.046 L 17.963 12.046 L 17.963 12.046 Q 17.303 12.179 16.918 12.379 L 16.918 12.379 L 16.918 12.379 Q 16.533 12.579 16.385 12.834 L 16.385 12.834 L 16.385 12.834 Q 16.236 13.089 16.236 13.389 L 16.236 13.389 L 16.236 13.389 Q 16.236 13.977 16.555 14.215 L 16.555 14.215 L 16.555 14.215 Q 16.874 14.454 17.49 14.454 Z  M 25.498 0.066 L 28.908 0.066 L 28.908 16.533 L 25.498 16.533 L 25.498 0.066 Z  M 36.542 4.95 L 36.542 4.95 L 36.542 4.95 Q 37.675 4.95 38.616 5.302 L 38.616 5.302 L 38.616 5.302 Q 39.556 5.654 40.233 6.325 L 40.233 6.325 L 40.233 6.325 Q 40.909 6.996 41.289 7.969 L 41.289 7.969 L 41.289 7.969 Q 41.668 8.943 41.668 10.175 L 41.668 10.175 L 41.668 10.175 Q 41.668 10.56 41.635 10.802 L 41.635 10.802 L 41.635 10.802 Q 41.602 11.044 41.514 11.187 L 41.514 11.187 L 41.514 11.187 Q 41.426 11.33 41.277 11.385 L 41.277 11.385 L 41.277 11.385 Q 41.129 11.44 40.898 11.44 L 40.898 11.44 L 34.32 11.44 L 34.32 11.44 Q 34.485 12.87 35.189 13.514 L 35.189 13.514 L 35.189 13.514 Q 35.893 14.157 37.004 14.157 L 37.004 14.157 L 37.004 14.157 Q 37.598 14.157 38.027 14.014 L 38.027 14.014 L 38.027 14.014 Q 38.456 13.871 38.791 13.695 L 38.791 13.695 L 38.791 13.695 Q 39.127 13.519 39.407 13.376 L 39.407 13.376 L 39.407 13.376 Q 39.688 13.233 39.996 13.233 L 39.996 13.233 L 39.996 13.233 Q 40.403 13.233 40.612 13.53 L 40.612 13.53 L 41.602 14.751 L 41.602 14.751 Q 41.074 15.356 40.464 15.735 L 40.464 15.735 L 40.464 15.735 Q 39.853 16.115 39.209 16.33 L 39.209 16.33 L 39.209 16.33 Q 38.566 16.544 37.922 16.627 L 37.922 16.627 L 37.922 16.627 Q 37.279 16.709 36.696 16.709 L 36.696 16.709 L 36.696 16.709 Q 35.497 16.709 34.446 16.319 L 34.446 16.319 L 34.446 16.319 Q 33.396 15.928 32.609 15.158 L 32.609 15.158 L 32.609 15.158 Q 31.823 14.388 31.366 13.244 L 31.366 13.244 L 31.366 13.244 Q 30.91 12.1 30.91 10.582 L 30.91 10.582 L 30.91 10.582 Q 30.91 9.438 31.301 8.415 L 31.301 8.415 L 31.301 8.415 Q 31.691 7.392 32.422 6.622 L 32.422 6.622 L 32.422 6.622 Q 33.154 5.852 34.193 5.401 L 34.193 5.401 L 34.193 5.401 Q 35.233 4.95 36.542 4.95 Z  M 36.608 7.304 L 36.608 7.304 L 36.608 7.304 Q 35.629 7.304 35.079 7.86 L 35.079 7.86 L 35.079 7.86 Q 34.529 8.415 34.353 9.46 L 34.353 9.46 L 38.61 9.46 L 38.61 9.46 Q 38.61 9.053 38.505 8.668 L 38.505 8.668 L 38.505 8.668 Q 38.401 8.283 38.164 7.98 L 38.164 7.98 L 38.164 7.98 Q 37.928 7.678 37.543 7.491 L 37.543 7.491 L 37.543 7.491 Q 37.158 7.304 36.608 7.304 Z  M 43.736 5.126 L 47.146 5.126 L 47.146 16.555 L 47.146 16.555 Q 47.146 17.358 46.942 18.068 L 46.942 18.068 L 46.942 18.068 Q 46.739 18.777 46.272 19.311 L 46.272 19.311 L 46.272 19.311 Q 45.804 19.844 45.039 20.152 L 45.039 20.152 L 45.039 20.152 Q 44.275 20.46 43.142 20.46 L 43.142 20.46 L 43.142 20.46 Q 42.724 20.46 42.366 20.411 L 42.366 20.411 L 42.366 20.411 Q 42.009 20.361 41.624 20.262 L 41.624 20.262 L 41.734 18.469 L 41.734 18.469 Q 41.756 18.238 41.888 18.128 L 41.888 18.128 L 41.888 18.128 Q 42.02 18.018 42.416 18.018 L 42.416 18.018 L 42.416 18.018 Q 42.812 18.018 43.065 17.952 L 43.065 17.952 L 43.065 17.952 Q 43.318 17.886 43.467 17.721 L 43.467 17.721 L 43.467 17.721 Q 43.615 17.556 43.676 17.276 L 43.676 17.276 L 43.676 17.276 Q 43.736 16.995 43.736 16.555 L 43.736 16.555 L 43.736 5.126 Z  M 47.542 2.002 L 47.542 2.002 L 47.542 2.002 Q 47.542 2.409 47.377 2.767 L 47.377 2.767 L 47.377 2.767 Q 47.212 3.124 46.926 3.394 L 46.926 3.394 L 46.926 3.394 Q 46.64 3.663 46.26 3.823 L 46.26 3.823 L 46.26 3.823 Q 45.881 3.982 45.452 3.982 L 45.452 3.982 L 45.452 3.982 Q 45.034 3.982 44.671 3.823 L 44.671 3.823 L 44.671 3.823 Q 44.308 3.663 44.027 3.394 L 44.027 3.394 L 44.027 3.394 Q 43.747 3.124 43.587 2.767 L 43.587 2.767 L 43.587 2.767 Q 43.428 2.409 43.428 2.002 L 43.428 2.002 L 43.428 2.002 Q 43.428 1.584 43.587 1.221 L 43.587 1.221 L 43.587 1.221 Q 43.747 0.858 44.027 0.583 L 44.027 0.583 L 44.027 0.583 Q 44.308 0.308 44.671 0.154 L 44.671 0.154 L 44.671 0.154 Q 45.034 0 45.452 0 L 45.452 0 L 45.452 0 Q 45.881 0 46.26 0.154 L 46.26 0.154 L 46.26 0.154 Q 46.64 0.308 46.926 0.583 L 46.926 0.583 L 46.926 0.583 Q 47.212 0.858 47.377 1.221 L 47.377 1.221 L 47.377 1.221 Q 47.542 1.584 47.542 2.002 Z " fill-rule="evenodd" fill="rgb(24,41,104)"/><g><path d=" M 33.946 47.152 L 30.536 47.152 L 30.536 32.126 L 32.648 32.126 L 32.648 32.126 Q 32.967 32.126 33.181 32.269 L 33.181 32.269 L 33.181 32.269 Q 33.396 32.412 33.484 32.698 L 33.484 32.698 L 33.737 33.534 L 33.737 33.534 Q 34.067 33.171 34.446 32.874 L 34.446 32.874 L 34.446 32.874 Q 34.826 32.577 35.26 32.362 L 35.26 32.362 L 35.26 32.362 Q 35.695 32.148 36.195 32.027 L 36.195 32.027 L 36.195 32.027 Q 36.696 31.906 37.29 31.906 L 37.29 31.906 L 37.29 31.906 Q 38.181 31.906 38.94 32.302 L 38.94 32.302 L 38.94 32.302 Q 39.699 32.698 40.249 33.446 L 40.249 33.446 L 40.249 33.446 Q 40.799 34.194 41.113 35.277 L 41.113 35.277 L 41.113 35.277 Q 41.426 36.361 41.426 37.736 L 41.426 37.736 L 41.426 37.736 Q 41.426 39.023 41.068 40.112 L 41.068 40.112 L 41.068 40.112 Q 40.711 41.201 40.067 42.004 L 40.067 42.004 L 40.067 42.004 Q 39.424 42.807 38.527 43.258 L 38.527 43.258 L 38.527 43.258 Q 37.631 43.709 36.542 43.709 L 36.542 43.709 L 36.542 43.709 Q 35.651 43.709 35.046 43.456 L 35.046 43.456 L 35.046 43.456 Q 34.441 43.203 33.946 42.774 L 33.946 42.774 L 33.946 47.152 Z  M 36.102 34.513 L 36.102 34.513 L 36.102 34.513 Q 35.728 34.513 35.426 34.585 L 35.426 34.585 L 35.426 34.585 Q 35.123 34.656 34.864 34.788 L 34.864 34.788 L 34.864 34.788 Q 34.606 34.92 34.386 35.123 L 34.386 35.123 L 34.386 35.123 Q 34.166 35.327 33.946 35.591 L 33.946 35.591 L 33.946 40.431 L 33.946 40.431 Q 34.331 40.86 34.782 41.031 L 34.782 41.031 L 34.782 41.031 Q 35.233 41.201 35.728 41.201 L 35.728 41.201 L 35.728 41.201 Q 36.201 41.201 36.597 41.014 L 36.597 41.014 L 36.597 41.014 Q 36.993 40.827 37.284 40.414 L 37.284 40.414 L 37.284 40.414 Q 37.576 40.002 37.741 39.342 L 37.741 39.342 L 37.741 39.342 Q 37.906 38.682 37.906 37.736 L 37.906 37.736 L 37.906 37.736 Q 37.906 36.834 37.774 36.218 L 37.774 36.218 L 37.774 36.218 Q 37.642 35.602 37.406 35.223 L 37.406 35.223 L 37.406 35.223 Q 37.169 34.843 36.839 34.678 L 36.839 34.678 L 36.839 34.678 Q 36.509 34.513 36.102 34.513 Z  M 46.662 43.533 L 43.252 43.533 L 43.252 32.126 L 45.276 32.126 L 45.276 32.126 Q 45.529 32.126 45.7 32.17 L 45.7 32.17 L 45.7 32.17 Q 45.87 32.214 45.986 32.307 L 45.986 32.307 L 45.986 32.307 Q 46.101 32.401 46.161 32.555 L 46.161 32.555 L 46.161 32.555 Q 46.222 32.709 46.266 32.929 L 46.266 32.929 L 46.453 33.996 L 46.453 33.996 Q 47.08 33.028 47.861 32.467 L 47.861 32.467 L 47.861 32.467 Q 48.642 31.906 49.566 31.906 L 49.566 31.906 L 49.566 31.906 Q 50.347 31.906 50.82 32.28 L 50.82 32.28 L 50.38 34.788 L 50.38 34.788 Q 50.336 35.019 50.204 35.113 L 50.204 35.113 L 50.204 35.113 Q 50.072 35.206 49.852 35.206 L 49.852 35.206 L 49.852 35.206 Q 49.665 35.206 49.412 35.157 L 49.412 35.157 L 49.412 35.157 Q 49.159 35.107 48.774 35.107 L 48.774 35.107 L 48.774 35.107 Q 47.432 35.107 46.662 36.537 L 46.662 36.537 L 46.662 43.533 Z  M 60.852 32.126 L 60.852 33.49 L 60.852 33.49 Q 60.852 33.842 60.72 34.161 L 60.72 34.161 L 60.72 34.161 Q 60.588 34.48 60.412 34.711 L 60.412 34.711 L 55.649 41.003 L 60.742 41.003 L 60.742 43.533 L 51.722 43.533 L 51.722 42.147 L 51.722 42.147 Q 51.722 41.938 51.837 41.625 L 51.837 41.625 L 51.837 41.625 Q 51.953 41.311 52.162 41.025 L 52.162 41.025 L 56.969 34.656 L 52.03 34.656 L 52.03 32.126 L 60.852 32.126 Z  M 67.914 31.95 L 67.914 31.95 L 67.914 31.95 Q 69.212 31.95 70.279 32.357 L 70.279 32.357 L 70.279 32.357 Q 71.346 32.764 72.111 33.523 L 72.111 33.523 L 72.111 33.523 Q 72.875 34.282 73.298 35.366 L 73.298 35.366 L 73.298 35.366 Q 73.722 36.449 73.722 37.802 L 73.722 37.802 L 73.722 37.802 Q 73.722 39.166 73.298 40.26 L 73.298 40.26 L 73.298 40.26 Q 72.875 41.355 72.111 42.12 L 72.111 42.12 L 72.111 42.12 Q 71.346 42.884 70.279 43.296 L 70.279 43.296 L 70.279 43.296 Q 69.212 43.709 67.914 43.709 L 67.914 43.709 L 67.914 43.709 Q 66.605 43.709 65.532 43.296 L 65.532 43.296 L 65.532 43.296 Q 64.46 42.884 63.685 42.12 L 63.685 42.12 L 63.685 42.12 Q 62.909 41.355 62.486 40.26 L 62.486 40.26 L 62.486 40.26 Q 62.062 39.166 62.062 37.802 L 62.062 37.802 L 62.062 37.802 Q 62.062 36.449 62.486 35.366 L 62.486 35.366 L 62.486 35.366 Q 62.909 34.282 63.685 33.523 L 63.685 33.523 L 63.685 33.523 Q 64.46 32.764 65.532 32.357 L 65.532 32.357 L 65.532 32.357 Q 66.605 31.95 67.914 31.95 Z  M 67.914 41.179 L 67.914 41.179 L 67.914 41.179 Q 69.091 41.179 69.647 40.348 L 69.647 40.348 L 69.647 40.348 Q 70.202 39.518 70.202 37.824 L 70.202 37.824 L 70.202 37.824 Q 70.202 36.13 69.647 35.305 L 69.647 35.305 L 69.647 35.305 Q 69.091 34.48 67.914 34.48 L 67.914 34.48 L 67.914 34.48 Q 66.704 34.48 66.143 35.305 L 66.143 35.305 L 66.143 35.305 Q 65.582 36.13 65.582 37.824 L 65.582 37.824 L 65.582 37.824 Q 65.582 39.518 66.143 40.348 L 66.143 40.348 L 66.143 40.348 Q 66.704 41.179 67.914 41.179 Z  M 85.712 43.533 L 83.6 43.533 L 83.6 43.533 Q 83.281 43.533 83.066 43.39 L 83.066 43.39 L 83.066 43.39 Q 82.852 43.247 82.764 42.961 L 82.764 42.961 L 82.5 42.092 L 82.5 42.092 Q 82.159 42.455 81.785 42.752 L 81.785 42.752 L 81.785 42.752 Q 81.411 43.049 80.976 43.264 L 80.976 43.264 L 80.976 43.264 Q 80.542 43.478 80.041 43.593 L 80.041 43.593 L 80.041 43.593 Q 79.541 43.709 78.958 43.709 L 78.958 43.709 L 78.958 43.709 Q 78.067 43.709 77.308 43.313 L 77.308 43.313 L 77.308 43.313 Q 76.549 42.917 75.999 42.169 L 75.999 42.169 L 75.999 42.169 Q 75.449 41.421 75.135 40.337 L 75.135 40.337 L 75.135 40.337 Q 74.822 39.254 74.822 37.868 L 74.822 37.868 L 74.822 37.868 Q 74.822 36.592 75.174 35.497 L 75.174 35.497 L 75.174 35.497 Q 75.526 34.403 76.169 33.605 L 76.169 33.605 L 76.169 33.605 Q 76.813 32.808 77.715 32.357 L 77.715 32.357 L 77.715 32.357 Q 78.617 31.906 79.706 31.906 L 79.706 31.906 L 79.706 31.906 Q 80.586 31.906 81.196 32.164 L 81.196 32.164 L 81.196 32.164 Q 81.807 32.423 82.302 32.841 L 82.302 32.841 L 82.302 27.066 L 85.712 27.066 L 85.712 43.533 Z  M 80.146 41.091 L 80.146 41.091 L 80.146 41.091 Q 80.52 41.091 80.822 41.02 L 80.822 41.02 L 80.822 41.02 Q 81.125 40.948 81.378 40.816 L 81.378 40.816 L 81.378 40.816 Q 81.631 40.684 81.856 40.486 L 81.856 40.486 L 81.856 40.486 Q 82.082 40.288 82.302 40.024 L 82.302 40.024 L 82.302 35.184 L 82.302 35.184 Q 81.906 34.755 81.46 34.585 L 81.46 34.585 L 81.46 34.585 Q 81.015 34.414 80.52 34.414 L 80.52 34.414 L 80.52 34.414 Q 80.047 34.414 79.651 34.601 L 79.651 34.601 L 79.651 34.601 Q 79.255 34.788 78.964 35.2 L 78.964 35.2 L 78.964 35.2 Q 78.672 35.613 78.507 36.273 L 78.507 36.273 L 78.507 36.273 Q 78.342 36.933 78.342 37.868 L 78.342 37.868 L 78.342 37.868 Q 78.342 38.77 78.474 39.386 L 78.474 39.386 L 78.474 39.386 Q 78.606 40.002 78.842 40.382 L 78.842 40.382 L 78.842 40.382 Q 79.079 40.761 79.409 40.926 L 79.409 40.926 L 79.409 40.926 Q 79.739 41.091 80.146 41.091 Z  M 88.132 32.126 L 91.542 32.126 L 91.542 39.364 L 91.542 39.364 Q 91.542 40.211 91.927 40.673 L 91.927 40.673 L 91.927 40.673 Q 92.312 41.135 93.06 41.135 L 93.06 41.135 L 93.06 41.135 Q 93.621 41.135 94.111 40.904 L 94.111 40.904 L 94.111 40.904 Q 94.6 40.673 95.062 40.255 L 95.062 40.255 L 95.062 32.126 L 98.472 32.126 L 98.472 43.533 L 96.36 43.533 L 96.36 43.533 Q 95.722 43.533 95.524 42.961 L 95.524 42.961 L 95.315 42.301 L 95.315 42.301 Q 94.985 42.62 94.633 42.879 L 94.633 42.879 L 94.633 42.879 Q 94.281 43.137 93.88 43.319 L 93.88 43.319 L 93.88 43.319 Q 93.478 43.5 93.016 43.605 L 93.016 43.605 L 93.016 43.605 Q 92.554 43.709 92.004 43.709 L 92.004 43.709 L 92.004 43.709 Q 91.069 43.709 90.349 43.384 L 90.349 43.384 L 90.349 43.384 Q 89.628 43.06 89.133 42.477 L 89.133 42.477 L 89.133 42.477 Q 88.638 41.894 88.385 41.102 L 88.385 41.102 L 88.385 41.102 Q 88.132 40.31 88.132 39.364 L 88.132 39.364 L 88.132 32.126 Z " fill-rule="evenodd" fill="rgb(3,175,218)"/><path d=" M 10.89 43.533 L 8.778 43.533 L 8.778 43.533 Q 8.459 43.533 8.244 43.39 L 8.244 43.39 L 8.244 43.39 Q 8.03 43.247 7.942 42.961 L 7.942 42.961 L 7.678 42.092 L 7.678 42.092 Q 7.337 42.455 6.963 42.752 L 6.963 42.752 L 6.963 42.752 Q 6.589 43.049 6.154 43.264 L 6.154 43.264 L 6.154 43.264 Q 5.72 43.478 5.219 43.593 L 5.219 43.593 L 5.219 43.593 Q 4.719 43.709 4.136 43.709 L 4.136 43.709 L 4.136 43.709 Q 3.245 43.709 2.486 43.313 L 2.486 43.313 L 2.486 43.313 Q 1.727 42.917 1.177 42.169 L 1.177 42.169 L 1.177 42.169 Q 0.627 41.421 0.313 40.337 L 0.313 40.337 L 0.313 40.337 Q 0 39.254 0 37.868 L 0 37.868 L 0 37.868 Q 0 36.592 0.352 35.497 L 0.352 35.497 L 0.352 35.497 Q 0.704 34.403 1.347 33.605 L 1.347 33.605 L 1.347 33.605 Q 1.991 32.808 2.893 32.357 L 2.893 32.357 L 2.893 32.357 Q 3.795 31.906 4.884 31.906 L 4.884 31.906 L 4.884 31.906 Q 5.764 31.906 6.375 32.164 L 6.375 32.164 L 6.375 32.164 Q 6.985 32.423 7.48 32.841 L 7.48 32.841 L 7.48 27.066 L 10.89 27.066 L 10.89 43.533 Z  M 5.324 41.091 L 5.324 41.091 L 5.324 41.091 Q 5.698 41.091 6 41.02 L 6 41.02 L 6 41.02 Q 6.303 40.948 6.556 40.816 L 6.556 40.816 L 6.556 40.816 Q 6.809 40.684 7.034 40.486 L 7.034 40.486 L 7.034 40.486 Q 7.26 40.288 7.48 40.024 L 7.48 40.024 L 7.48 35.184 L 7.48 35.184 Q 7.084 34.755 6.638 34.585 L 6.638 34.585 L 6.638 34.585 Q 6.193 34.414 5.698 34.414 L 5.698 34.414 L 5.698 34.414 Q 5.225 34.414 4.829 34.601 L 4.829 34.601 L 4.829 34.601 Q 4.433 34.788 4.142 35.2 L 4.142 35.2 L 4.142 35.2 Q 3.85 35.613 3.685 36.273 L 3.685 36.273 L 3.685 36.273 Q 3.52 36.933 3.52 37.868 L 3.52 37.868 L 3.52 37.868 Q 3.52 38.77 3.652 39.386 L 3.652 39.386 L 3.652 39.386 Q 3.784 40.002 4.02 40.382 L 4.02 40.382 L 4.02 40.382 Q 4.257 40.761 4.587 40.926 L 4.587 40.926 L 4.587 40.926 Q 4.917 41.091 5.324 41.091 Z  M 18.612 31.95 L 18.612 31.95 L 18.612 31.95 Q 19.91 31.95 20.977 32.357 L 20.977 32.357 L 20.977 32.357 Q 22.044 32.764 22.808 33.523 L 22.808 33.523 L 22.808 33.523 Q 23.573 34.282 23.996 35.366 L 23.996 35.366 L 23.996 35.366 Q 24.42 36.449 24.42 37.802 L 24.42 37.802 L 24.42 37.802 Q 24.42 39.166 23.996 40.26 L 23.996 40.26 L 23.996 40.26 Q 23.573 41.355 22.808 42.12 L 22.808 42.12 L 22.808 42.12 Q 22.044 42.884 20.977 43.296 L 20.977 43.296 L 20.977 43.296 Q 19.91 43.709 18.612 43.709 L 18.612 43.709 L 18.612 43.709 Q 17.303 43.709 16.231 43.296 L 16.231 43.296 L 16.231 43.296 Q 15.158 42.884 14.382 42.12 L 14.382 42.12 L 14.382 42.12 Q 13.607 41.355 13.183 40.26 L 13.183 40.26 L 13.183 40.26 Q 12.76 39.166 12.76 37.802 L 12.76 37.802 L 12.76 37.802 Q 12.76 36.449 13.183 35.366 L 13.183 35.366 L 13.183 35.366 Q 13.607 34.282 14.382 33.523 L 14.382 33.523 L 14.382 33.523 Q 15.158 32.764 16.231 32.357 L 16.231 32.357 L 16.231 32.357 Q 17.303 31.95 18.612 31.95 Z  M 18.612 41.179 L 18.612 41.179 L 18.612 41.179 Q 19.789 41.179 20.344 40.348 L 20.344 40.348 L 20.344 40.348 Q 20.9 39.518 20.9 37.824 L 20.9 37.824 L 20.9 37.824 Q 20.9 36.13 20.344 35.305 L 20.344 35.305 L 20.344 35.305 Q 19.789 34.48 18.612 34.48 L 18.612 34.48 L 18.612 34.48 Q 17.402 34.48 16.841 35.305 L 16.841 35.305 L 16.841 35.305 Q 16.28 36.13 16.28 37.824 L 16.28 37.824 L 16.28 37.824 Q 16.28 39.518 16.841 40.348 L 16.841 40.348 L 16.841 40.348 Q 17.402 41.179 18.612 41.179 Z " fill-rule="evenodd" fill="rgb(24,41,104)"/></g></g></g><g><path d=" M 66.33 71.604 C 66.131 71.604 65.931 71.6 65.736 71.6 C 61.246 71.6 56.926 69.83 53.726 66.67 C 52.518 65.477 51.51 64.12 50.736 62.645 C 49.962 64.12 48.954 65.477 47.746 66.67 C 44.546 69.83 40.226 71.6 35.736 71.6 C 31.246 71.6 26.926 69.83 23.726 66.67 C 22.518 65.477 21.51 64.12 20.736 62.645 C 19.962 64.12 18.954 65.477 17.746 66.67 C 14.546 69.83 10.226 71.6 5.736 71.6 C 4.027 71.6 2.343 71.344 0.736 70.852 L 0.736 66.611 C 2.308 67.258 4.005 67.6 5.736 67.6 C 9.176 67.6 12.486 66.25 14.936 63.83 C 17.366 61.43 18.726 58.16 18.736 54.75 L 18.736 54.75 C 18.736 54.75 18.736 54.75 18.736 54.75 L 22.736 54.75 C 22.746 58.16 24.106 61.43 26.536 63.83 C 28.986 66.25 32.296 67.6 35.736 67.6 C 39.176 67.6 42.486 66.25 44.936 63.83 C 47.366 61.43 48.726 58.16 48.736 54.75 L 48.736 54.75 L 52.736 54.75 C 52.746 58.16 54.106 61.43 56.536 63.83 C 58.986 66.25 62.296 67.6 65.736 67.6 C 65.931 67.6 66.131 67.608 66.33 67.616 L 66.33 71.604 Z  M 91.422 67.608 L 93.422 67.608 L 93.422 71.608 L 91.422 71.608 L 68.322 71.608 L 66.322 71.608 L 66.322 67.608 L 68.322 67.608 L 91.422 67.608 Z " fill-rule="evenodd" fill="rgb(24,41,104)"/><path d=" M 99.805 69.567 L 96.805 71.317 L 93.805 73.067 L 93.805 69.567 L 93.805 66.067 L 96.805 67.817 L 99.805 69.567 Z " fill="rgb(24,41,104)" vector-effect="non-scaling-stroke" stroke-width="1" stroke="rgb(24,41,104)" stroke-linejoin="round" stroke-linecap="round" stroke-miterlimit="3"/></g></g></svg>