<?xml version="1.0" standalone="no"?><!-- Generator: Gravit.io --><svg xmlns="http://www.w3.org/2000/svg" xmlns:xlink="http://www.w3.org/1999/xlink" style="isolation:isolate" viewBox="0 0 100.736 74.9" width="100.736" height="74.9"><defs><clipPath id="_clipPath_Nrks0wIOzkwHkrbPs9tus8hWQryQjBlz"><rect width="100.736" height="74.9"/></clipPath></defs><g clip-path="url(#_clipPath_Nrks0wIOzkwHkrbPs9tus8hWQryQjBlz)"><g><g><path d=" M 11.654 16.533 L 9.542 16.533 L 9.542 16.533 Q 9.223 16.533 9.008 16.39 L 9.008 16.39 L 9.008 16.39 Q 8.794 16.247 8.706 15.961 L 8.706 15.961 L 8.442 15.092 L 8.442 15.092 Q 8.101 15.455 7.727 15.752 L 7.727 15.752 L 7.727 15.752 Q 7.353 16.049 6.918 16.264 L 6.918 16.264 L 6.918 16.264 Q 6.484 16.478 5.983 16.593 L 5.983 16.593 L 5.983 16.593 Q 5.483 16.709 4.9 16.709 L 4.9 16.709 L 4.9 16.709 Q 4.009 16.709 3.25 16.313 L 3.25 16.313 L 3.25 16.313 Q 2.491 15.917 1.941 15.169 L 1.941 15.169 L 1.941 15.169 Q 1.391 14.421 1.077 13.337 L 1.077 13.337 L 1.077 13.337 Q 0.764 12.254 0.764 10.868 L 0.764 10.868 L 0.764 10.868 Q 0.764 9.592 1.116 8.497 L 1.116 8.497 L 1.116 8.497 Q 1.468 7.403 2.111 6.605 L 2.111 6.605 L 2.111 6.605 Q 2.755 5.808 3.657 5.357 L 3.657 5.357 L 3.657 5.357 Q 4.559 4.906 5.648 4.906 L 5.648 4.906 L 5.648 4.906 Q 6.528 4.906 7.139 5.164 L 7.139 5.164 L 7.139 5.164 Q 7.749 5.423 8.244 5.841 L 8.244 5.841 L 8.244 0.066 L 11.654 0.066 L 11.654 16.533 Z  M 6.088 14.091 L 6.088 14.091 L 6.088 14.091 Q 6.462 14.091 6.764 14.02 L 6.764 14.02 L 6.764 14.02 Q 7.067 13.948 7.32 13.816 L 7.32 13.816 L 7.32 13.816 Q 7.573 13.684 7.798 13.486 L 7.798 13.486 L 7.798 13.486 Q 8.024 13.288 8.244 13.024 L 8.244 13.024 L 8.244 8.184 L 8.244 8.184 Q 7.848 7.755 7.402 7.585 L 7.402 7.585 L 7.402 7.585 Q 6.957 7.414 6.462 7.414 L 6.462 7.414 L 6.462 7.414 Q 5.989 7.414 5.593 7.601 L 5.593 7.601 L 5.593 7.601 Q 5.197 7.788 4.906 8.2 L 4.906 8.2 L 4.906 8.2 Q 4.614 8.613 4.449 9.273 L 4.449 9.273 L 4.449 9.273 Q 4.284 9.933 4.284 10.868 L 4.284 10.868 L 4.284 10.868 Q 4.284 11.77 4.416 12.386 L 4.416 12.386 L 4.416 12.386 Q 4.548 13.002 4.784 13.382 L 4.784 13.382 L 4.784 13.382 Q 5.021 13.761 5.351 13.926 L 5.351 13.926 L 5.351 13.926 Q 5.681 14.091 6.088 14.091 Z  M 23.732 16.533 L 22.17 16.533 L 22.17 16.533 Q 21.686 16.533 21.438 16.401 L 21.438 16.401 L 21.438 16.401 Q 21.191 16.269 21.026 15.851 L 21.026 15.851 L 20.784 15.224 L 20.784 15.224 Q 20.355 15.587 19.959 15.862 L 19.959 15.862 L 19.959 15.862 Q 19.563 16.137 19.14 16.33 L 19.14 16.33 L 19.14 16.33 Q 18.716 16.522 18.238 16.616 L 18.238 16.616 L 18.238 16.616 Q 17.759 16.709 17.176 16.709 L 17.176 16.709 L 17.176 16.709 Q 16.395 16.709 15.757 16.505 L 15.757 16.505 L 15.757 16.505 Q 15.119 16.301 14.673 15.903 L 14.673 15.903 L 14.673 15.903 Q 14.228 15.506 13.986 14.916 L 13.986 14.916 L 13.986 14.916 Q 13.744 14.325 13.744 13.553 L 13.744 13.553 L 13.744 13.553 Q 13.744 12.946 14.052 12.306 L 14.052 12.306 L 14.052 12.306 Q 14.36 11.666 15.119 11.141 L 15.119 11.141 L 15.119 11.141 Q 15.878 10.617 17.165 10.264 L 17.165 10.264 L 17.165 10.264 Q 18.452 9.911 20.41 9.911 L 20.41 9.911 L 20.41 9.423 L 20.41 9.423 Q 20.41 8.412 19.998 7.963 L 19.998 7.963 L 19.998 7.963 Q 19.585 7.513 18.826 7.513 L 18.826 7.513 L 18.826 7.513 Q 18.221 7.513 17.836 7.645 L 17.836 7.645 L 17.836 7.645 Q 17.451 7.777 17.149 7.942 L 17.149 7.942 L 17.149 7.942 Q 16.846 8.107 16.56 8.239 L 16.56 8.239 L 16.56 8.239 Q 16.274 8.371 15.878 8.371 L 15.878 8.371 L 15.878 8.371 Q 15.526 8.371 15.279 8.2 L 15.279 8.2 L 15.279 8.2 Q 15.031 8.03 14.888 7.777 L 14.888 7.777 L 14.272 6.71 L 14.272 6.71 Q 15.306 5.797 16.565 5.352 L 16.565 5.352 L 16.565 5.352 Q 17.825 4.906 19.266 4.906 L 19.266 4.906 L 19.266 4.906 Q 20.3 4.906 21.13 5.242 L 21.13 5.242 L 21.13 5.242 Q 21.961 5.577 22.539 6.176 L 22.539 6.176 L 22.539 6.176 Q 23.116 6.776 23.424 7.601 L 23.424 7.601 L 23.424 7.601 Q 23.732 8.426 23.732 9.405 L 23.732 9.405 L 23.732 16.533 Z  M 18.254 14.454 L 18.254 14.454 L 18.254 14.454 Q 18.914 14.454 19.409 14.223 L 19.409 14.223 L 19.409 14.223 Q 19.904 13.992 20.41 13.475 L 20.41 13.475 L 20.41 11.913 L 20.41 11.913 Q 19.387 11.913 18.727 12.046 L 18.727 12.046 L 18.727 12.046 Q 18.067 12.179 17.682 12.379 L 17.682 12.379 L 17.682 12.379 Q 17.297 12.579 17.149 12.834 L 17.149 12.834 L 17.149 12.834 Q 17 13.089 17 13.389 L 17 13.389 L 17 13.389 Q 17 13.977 17.319 14.215 L 17.319 14.215 L 17.319 14.215 Q 17.638 14.454 18.254 14.454 Z  M 26.262 0.066 L 29.672 0.066 L 29.672 16.533 L 26.262 16.533 L 26.262 0.066 Z  M 37.306 4.95 L 37.306 4.95 L 37.306 4.95 Q 38.439 4.95 39.38 5.302 L 39.38 5.302 L 39.38 5.302 Q 40.32 5.654 40.997 6.325 L 40.997 6.325 L 40.997 6.325 Q 41.673 6.996 42.053 7.969 L 42.053 7.969 L 42.053 7.969 Q 42.432 8.943 42.432 10.175 L 42.432 10.175 L 42.432 10.175 Q 42.432 10.56 42.399 10.802 L 42.399 10.802 L 42.399 10.802 Q 42.366 11.044 42.278 11.187 L 42.278 11.187 L 42.278 11.187 Q 42.19 11.33 42.041 11.385 L 42.041 11.385 L 42.041 11.385 Q 41.893 11.44 41.662 11.44 L 41.662 11.44 L 35.084 11.44 L 35.084 11.44 Q 35.249 12.87 35.953 13.514 L 35.953 13.514 L 35.953 13.514 Q 36.657 14.157 37.768 14.157 L 37.768 14.157 L 37.768 14.157 Q 38.362 14.157 38.791 14.014 L 38.791 14.014 L 38.791 14.014 Q 39.22 13.871 39.555 13.695 L 39.555 13.695 L 39.555 13.695 Q 39.891 13.519 40.171 13.376 L 40.171 13.376 L 40.171 13.376 Q 40.452 13.233 40.76 13.233 L 40.76 13.233 L 40.76 13.233 Q 41.167 13.233 41.376 13.53 L 41.376 13.53 L 42.366 14.751 L 42.366 14.751 Q 41.838 15.356 41.228 15.735 L 41.228 15.735 L 41.228 15.735 Q 40.617 16.115 39.974 16.33 L 39.974 16.33 L 39.974 16.33 Q 39.33 16.544 38.686 16.627 L 38.686 16.627 L 38.686 16.627 Q 38.043 16.709 37.46 16.709 L 37.46 16.709 L 37.46 16.709 Q 36.261 16.709 35.21 16.319 L 35.21 16.319 L 35.21 16.319 Q 34.16 15.928 33.373 15.158 L 33.373 15.158 L 33.373 15.158 Q 32.587 14.388 32.13 13.244 L 32.13 13.244 L 32.13 13.244 Q 31.674 12.1 31.674 10.582 L 31.674 10.582 L 31.674 10.582 Q 31.674 9.438 32.065 8.415 L 32.065 8.415 L 32.065 8.415 Q 32.455 7.392 33.186 6.622 L 33.186 6.622 L 33.186 6.622 Q 33.918 5.852 34.957 5.401 L 34.957 5.401 L 34.957 5.401 Q 35.997 4.95 37.306 4.95 Z  M 37.372 7.304 L 37.372 7.304 L 37.372 7.304 Q 36.393 7.304 35.843 7.86 L 35.843 7.86 L 35.843 7.86 Q 35.293 8.415 35.117 9.46 L 35.117 9.46 L 39.374 9.46 L 39.374 9.46 Q 39.374 9.053 39.269 8.668 L 39.269 8.668 L 39.269 8.668 Q 39.165 8.283 38.928 7.98 L 38.928 7.98 L 38.928 7.98 Q 38.692 7.678 38.307 7.491 L 38.307 7.491 L 38.307 7.491 Q 37.922 7.304 37.372 7.304 Z  M 44.5 5.126 L 47.91 5.126 L 47.91 16.555 L 47.91 16.555 Q 47.91 17.358 47.707 18.068 L 47.707 18.068 L 47.707 18.068 Q 47.503 18.777 47.036 19.311 L 47.036 19.311 L 47.036 19.311 Q 46.568 19.844 45.803 20.152 L 45.803 20.152 L 45.803 20.152 Q 45.039 20.46 43.906 20.46 L 43.906 20.46 L 43.906 20.46 Q 43.488 20.46 43.13 20.411 L 43.13 20.411 L 43.13 20.411 Q 42.773 20.361 42.388 20.262 L 42.388 20.262 L 42.498 18.469 L 42.498 18.469 Q 42.52 18.238 42.652 18.128 L 42.652 18.128 L 42.652 18.128 Q 42.784 18.018 43.18 18.018 L 43.18 18.018 L 43.18 18.018 Q 43.576 18.018 43.829 17.952 L 43.829 17.952 L 43.829 17.952 Q 44.082 17.886 44.231 17.721 L 44.231 17.721 L 44.231 17.721 Q 44.379 17.556 44.44 17.276 L 44.44 17.276 L 44.44 17.276 Q 44.5 16.995 44.5 16.555 L 44.5 16.555 L 44.5 5.126 Z  M 48.306 2.002 L 48.306 2.002 L 48.306 2.002 Q 48.306 2.409 48.141 2.767 L 48.141 2.767 L 48.141 2.767 Q 47.976 3.124 47.69 3.394 L 47.69 3.394 L 47.69 3.394 Q 47.404 3.663 47.024 3.823 L 47.024 3.823 L 47.024 3.823 Q 46.645 3.982 46.216 3.982 L 46.216 3.982 L 46.216 3.982 Q 45.798 3.982 45.435 3.823 L 45.435 3.823 L 45.435 3.823 Q 45.072 3.663 44.791 3.394 L 44.791 3.394 L 44.791 3.394 Q 44.511 3.124 44.351 2.767 L 44.351 2.767 L 44.351 2.767 Q 44.192 2.409 44.192 2.002 L 44.192 2.002 L 44.192 2.002 Q 44.192 1.584 44.351 1.221 L 44.351 1.221 L 44.351 1.221 Q 44.511 0.858 44.791 0.583 L 44.791 0.583 L 44.791 0.583 Q 45.072 0.308 45.435 0.154 L 45.435 0.154 L 45.435 0.154 Q 45.798 0 46.216 0 L 46.216 0 L 46.216 0 Q 46.645 0 47.024 0.154 L 47.024 0.154 L 47.024 0.154 Q 47.404 0.308 47.69 0.583 L 47.69 0.583 L 47.69 0.583 Q 47.976 0.858 48.141 1.221 L 48.141 1.221 L 48.141 1.221 Q 48.306 1.584 48.306 2.002 Z " fill-rule="evenodd" fill="rgb(24,41,104)"/><g><path d=" M 34.71 47.152 L 31.3 47.152 L 31.3 32.126 L 33.412 32.126 L 33.412 32.126 Q 33.731 32.126 33.945 32.269 L 33.945 32.269 L 33.945 32.269 Q 34.16 32.412 34.248 32.698 L 34.248 32.698 L 34.501 33.534 L 34.501 33.534 Q 34.831 33.171 35.21 32.874 L 35.21 32.874 L 35.21 32.874 Q 35.59 32.577 36.024 32.362 L 36.024 32.362 L 36.024 32.362 Q 36.459 32.148 36.959 32.027 L 36.959 32.027 L 36.959 32.027 Q 37.46 31.906 38.054 31.906 L 38.054 31.906 L 38.054 31.906 Q 38.945 31.906 39.704 32.302 L 39.704 32.302 L 39.704 32.302 Q 40.463 32.698 41.013 33.446 L 41.013 33.446 L 41.013 33.446 Q 41.563 34.194 41.877 35.277 L 41.877 35.277 L 41.877 35.277 Q 42.19 36.361 42.19 37.736 L 42.19 37.736 L 42.19 37.736 Q 42.19 39.023 41.832 40.112 L 41.832 40.112 L 41.832 40.112 Q 41.475 41.201 40.832 42.004 L 40.832 42.004 L 40.832 42.004 Q 40.188 42.807 39.291 43.258 L 39.291 43.258 L 39.291 43.258 Q 38.395 43.709 37.306 43.709 L 37.306 43.709 L 37.306 43.709 Q 36.415 43.709 35.81 43.456 L 35.81 43.456 L 35.81 43.456 Q 35.205 43.203 34.71 42.774 L 34.71 42.774 L 34.71 47.152 Z  M 36.866 34.513 L 36.866 34.513 L 36.866 34.513 Q 36.492 34.513 36.19 34.585 L 36.19 34.585 L 36.19 34.585 Q 35.887 34.656 35.628 34.788 L 35.628 34.788 L 35.628 34.788 Q 35.37 34.92 35.15 35.123 L 35.15 35.123 L 35.15 35.123 Q 34.93 35.327 34.71 35.591 L 34.71 35.591 L 34.71 40.431 L 34.71 40.431 Q 35.095 40.86 35.546 41.031 L 35.546 41.031 L 35.546 41.031 Q 35.997 41.201 36.492 41.201 L 36.492 41.201 L 36.492 41.201 Q 36.965 41.201 37.361 41.014 L 37.361 41.014 L 37.361 41.014 Q 37.757 40.827 38.048 40.414 L 38.048 40.414 L 38.048 40.414 Q 38.34 40.002 38.505 39.342 L 38.505 39.342 L 38.505 39.342 Q 38.67 38.682 38.67 37.736 L 38.67 37.736 L 38.67 37.736 Q 38.67 36.834 38.538 36.218 L 38.538 36.218 L 38.538 36.218 Q 38.406 35.602 38.17 35.223 L 38.17 35.223 L 38.17 35.223 Q 37.933 34.843 37.603 34.678 L 37.603 34.678 L 37.603 34.678 Q 37.273 34.513 36.866 34.513 Z  M 47.426 43.533 L 44.016 43.533 L 44.016 32.126 L 46.04 32.126 L 46.04 32.126 Q 46.293 32.126 46.464 32.17 L 46.464 32.17 L 46.464 32.17 Q 46.634 32.214 46.75 32.307 L 46.75 32.307 L 46.75 32.307 Q 46.865 32.401 46.926 32.555 L 46.926 32.555 L 46.926 32.555 Q 46.986 32.709 47.03 32.929 L 47.03 32.929 L 47.217 33.996 L 47.217 33.996 Q 47.844 33.028 48.625 32.467 L 48.625 32.467 L 48.625 32.467 Q 49.406 31.906 50.33 31.906 L 50.33 31.906 L 50.33 31.906 Q 51.111 31.906 51.584 32.28 L 51.584 32.28 L 51.144 34.788 L 51.144 34.788 Q 51.1 35.019 50.968 35.113 L 50.968 35.113 L 50.968 35.113 Q 50.836 35.206 50.616 35.206 L 50.616 35.206 L 50.616 35.206 Q 50.429 35.206 50.176 35.157 L 50.176 35.157 L 50.176 35.157 Q 49.923 35.107 49.538 35.107 L 49.538 35.107 L 49.538 35.107 Q 48.196 35.107 47.426 36.537 L 47.426 36.537 L 47.426 43.533 Z  M 61.616 32.126 L 61.616 33.49 L 61.616 33.49 Q 61.616 33.842 61.484 34.161 L 61.484 34.161 L 61.484 34.161 Q 61.352 34.48 61.176 34.711 L 61.176 34.711 L 56.413 41.003 L 61.506 41.003 L 61.506 43.533 L 52.486 43.533 L 52.486 42.147 L 52.486 42.147 Q 52.486 41.938 52.601 41.625 L 52.601 41.625 L 52.601 41.625 Q 52.717 41.311 52.926 41.025 L 52.926 41.025 L 57.733 34.656 L 52.794 34.656 L 52.794 32.126 L 61.616 32.126 Z  M 68.678 31.95 L 68.678 31.95 L 68.678 31.95 Q 69.976 31.95 71.043 32.357 L 71.043 32.357 L 71.043 32.357 Q 72.11 32.764 72.875 33.523 L 72.875 33.523 L 72.875 33.523 Q 73.639 34.282 74.063 35.366 L 74.063 35.366 L 74.063 35.366 Q 74.486 36.449 74.486 37.802 L 74.486 37.802 L 74.486 37.802 Q 74.486 39.166 74.063 40.26 L 74.063 40.26 L 74.063 40.26 Q 73.639 41.355 72.875 42.12 L 72.875 42.12 L 72.875 42.12 Q 72.11 42.884 71.043 43.296 L 71.043 43.296 L 71.043 43.296 Q 69.976 43.709 68.678 43.709 L 68.678 43.709 L 68.678 43.709 Q 67.369 43.709 66.296 43.296 L 66.296 43.296 L 66.296 43.296 Q 65.224 42.884 64.449 42.12 L 64.449 42.12 L 64.449 42.12 Q 63.673 41.355 63.25 40.26 L 63.25 40.26 L 63.25 40.26 Q 62.826 39.166 62.826 37.802 L 62.826 37.802 L 62.826 37.802 Q 62.826 36.449 63.25 35.366 L 63.25 35.366 L 63.25 35.366 Q 63.673 34.282 64.449 33.523 L 64.449 33.523 L 64.449 33.523 Q 65.224 32.764 66.296 32.357 L 66.296 32.357 L 66.296 32.357 Q 67.369 31.95 68.678 31.95 Z  M 68.678 41.179 L 68.678 41.179 L 68.678 41.179 Q 69.855 41.179 70.411 40.348 L 70.411 40.348 L 70.411 40.348 Q 70.966 39.518 70.966 37.824 L 70.966 37.824 L 70.966 37.824 Q 70.966 36.13 70.411 35.305 L 70.411 35.305 L 70.411 35.305 Q 69.855 34.48 68.678 34.48 L 68.678 34.48 L 68.678 34.48 Q 67.468 34.48 66.907 35.305 L 66.907 35.305 L 66.907 35.305 Q 66.346 36.13 66.346 37.824 L 66.346 37.824 L 66.346 37.824 Q 66.346 39.518 66.907 40.348 L 66.907 40.348 L 66.907 40.348 Q 67.468 41.179 68.678 41.179 Z  M 86.476 43.533 L 84.364 43.533 L 84.364 43.533 Q 84.045 43.533 83.83 43.39 L 83.83 43.39 L 83.83 43.39 Q 83.616 43.247 83.528 42.961 L 83.528 42.961 L 83.264 42.092 L 83.264 42.092 Q 82.923 42.455 82.549 42.752 L 82.549 42.752 L 82.549 42.752 Q 82.175 43.049 81.741 43.264 L 81.741 43.264 L 81.741 43.264 Q 81.306 43.478 80.806 43.593 L 80.806 43.593 L 80.806 43.593 Q 80.305 43.709 79.722 43.709 L 79.722 43.709 L 79.722 43.709 Q 78.831 43.709 78.072 43.313 L 78.072 43.313 L 78.072 43.313 Q 77.313 42.917 76.763 42.169 L 76.763 42.169 L 76.763 42.169 Q 76.213 41.421 75.899 40.337 L 75.899 40.337 L 75.899 40.337 Q 75.586 39.254 75.586 37.868 L 75.586 37.868 L 75.586 37.868 Q 75.586 36.592 75.938 35.497 L 75.938 35.497 L 75.938 35.497 Q 76.29 34.403 76.933 33.605 L 76.933 33.605 L 76.933 33.605 Q 77.577 32.808 78.479 32.357 L 78.479 32.357 L 78.479 32.357 Q 79.381 31.906 80.47 31.906 L 80.47 31.906 L 80.47 31.906 Q 81.35 31.906 81.96 32.164 L 81.96 32.164 L 81.96 32.164 Q 82.571 32.423 83.066 32.841 L 83.066 32.841 L 83.066 27.066 L 86.476 27.066 L 86.476 43.533 Z  M 80.91 41.091 L 80.91 41.091 L 80.91 41.091 Q 81.284 41.091 81.587 41.02 L 81.587 41.02 L 81.587 41.02 Q 81.889 40.948 82.142 40.816 L 82.142 40.816 L 82.142 40.816 Q 82.395 40.684 82.621 40.486 L 82.621 40.486 L 82.621 40.486 Q 82.846 40.288 83.066 40.024 L 83.066 40.024 L 83.066 35.184 L 83.066 35.184 Q 82.67 34.755 82.224 34.585 L 82.224 34.585 L 82.224 34.585 Q 81.779 34.414 81.284 34.414 L 81.284 34.414 L 81.284 34.414 Q 80.811 34.414 80.415 34.601 L 80.415 34.601 L 80.415 34.601 Q 80.019 34.788 79.728 35.2 L 79.728 35.2 L 79.728 35.2 Q 79.436 35.613 79.271 36.273 L 79.271 36.273 L 79.271 36.273 Q 79.106 36.933 79.106 37.868 L 79.106 37.868 L 79.106 37.868 Q 79.106 38.77 79.238 39.386 L 79.238 39.386 L 79.238 39.386 Q 79.37 40.002 79.606 40.382 L 79.606 40.382 L 79.606 40.382 Q 79.843 40.761 80.173 40.926 L 80.173 40.926 L 80.173 40.926 Q 80.503 41.091 80.91 41.091 Z  M 88.896 32.126 L 92.306 32.126 L 92.306 39.364 L 92.306 39.364 Q 92.306 40.211 92.691 40.673 L 92.691 40.673 L 92.691 40.673 Q 93.076 41.135 93.824 41.135 L 93.824 41.135 L 93.824 41.135 Q 94.385 41.135 94.875 40.904 L 94.875 40.904 L 94.875 40.904 Q 95.364 40.673 95.826 40.255 L 95.826 40.255 L 95.826 32.126 L 99.236 32.126 L 99.236 43.533 L 97.124 43.533 L 97.124 43.533 Q 96.486 43.533 96.288 42.961 L 96.288 42.961 L 96.079 42.301 L 96.079 42.301 Q 95.749 42.62 95.397 42.879 L 95.397 42.879 L 95.397 42.879 Q 95.045 43.137 94.644 43.319 L 94.644 43.319 L 94.644 43.319 Q 94.242 43.5 93.78 43.605 L 93.78 43.605 L 93.78 43.605 Q 93.318 43.709 92.768 43.709 L 92.768 43.709 L 92.768 43.709 Q 91.833 43.709 91.113 43.384 L 91.113 43.384 L 91.113 43.384 Q 90.392 43.06 89.897 42.477 L 89.897 42.477 L 89.897 42.477 Q 89.402 41.894 89.149 41.102 L 89.149 41.102 L 89.149 41.102 Q 88.896 40.31 88.896 39.364 L 88.896 39.364 L 88.896 32.126 Z " fill-rule="evenodd" fill="rgb(3,175,218)"/><path d=" M 11.654 43.533 L 9.542 43.533 L 9.542 43.533 Q 9.223 43.533 9.008 43.39 L 9.008 43.39 L 9.008 43.39 Q 8.794 43.247 8.706 42.961 L 8.706 42.961 L 8.442 42.092 L 8.442 42.092 Q 8.101 42.455 7.727 42.752 L 7.727 42.752 L 7.727 42.752 Q 7.353 43.049 6.918 43.264 L 6.918 43.264 L 6.918 43.264 Q 6.484 43.478 5.983 43.593 L 5.983 43.593 L 5.983 43.593 Q 5.483 43.709 4.9 43.709 L 4.9 43.709 L 4.9 43.709 Q 4.009 43.709 3.25 43.313 L 3.25 43.313 L 3.25 43.313 Q 2.491 42.917 1.941 42.169 L 1.941 42.169 L 1.941 42.169 Q 1.391 41.421 1.077 40.337 L 1.077 40.337 L 1.077 40.337 Q 0.764 39.254 0.764 37.868 L 0.764 37.868 L 0.764 37.868 Q 0.764 36.592 1.116 35.497 L 1.116 35.497 L 1.116 35.497 Q 1.468 34.403 2.111 33.605 L 2.111 33.605 L 2.111 33.605 Q 2.755 32.808 3.657 32.357 L 3.657 32.357 L 3.657 32.357 Q 4.559 31.906 5.648 31.906 L 5.648 31.906 L 5.648 31.906 Q 6.528 31.906 7.139 32.164 L 7.139 32.164 L 7.139 32.164 Q 7.749 32.423 8.244 32.841 L 8.244 32.841 L 8.244 27.066 L 11.654 27.066 L 11.654 43.533 Z  M 6.088 41.091 L 6.088 41.091 L 6.088 41.091 Q 6.462 41.091 6.764 41.02 L 6.764 41.02 L 6.764 41.02 Q 7.067 40.948 7.32 40.816 L 7.32 40.816 L 7.32 40.816 Q 7.573 40.684 7.798 40.486 L 7.798 40.486 L 7.798 40.486 Q 8.024 40.288 8.244 40.024 L 8.244 40.024 L 8.244 35.184 L 8.244 35.184 Q 7.848 34.755 7.402 34.585 L 7.402 34.585 L 7.402 34.585 Q 6.957 34.414 6.462 34.414 L 6.462 34.414 L 6.462 34.414 Q 5.989 34.414 5.593 34.601 L 5.593 34.601 L 5.593 34.601 Q 5.197 34.788 4.906 35.2 L 4.906 35.2 L 4.906 35.2 Q 4.614 35.613 4.449 36.273 L 4.449 36.273 L 4.449 36.273 Q 4.284 36.933 4.284 37.868 L 4.284 37.868 L 4.284 37.868 Q 4.284 38.77 4.416 39.386 L 4.416 39.386 L 4.416 39.386 Q 4.548 40.002 4.784 40.382 L 4.784 40.382 L 4.784 40.382 Q 5.021 40.761 5.351 40.926 L 5.351 40.926 L 5.351 40.926 Q 5.681 41.091 6.088 41.091 Z  M 19.376 31.95 L 19.376 31.95 L 19.376 31.95 Q 20.674 31.95 21.741 32.357 L 21.741 32.357 L 21.741 32.357 Q 22.808 32.764 23.572 33.523 L 23.572 33.523 L 23.572 33.523 Q 24.337 34.282 24.76 35.366 L 24.76 35.366 L 24.76 35.366 Q 25.184 36.449 25.184 37.802 L 25.184 37.802 L 25.184 37.802 Q 25.184 39.166 24.76 40.26 L 24.76 40.26 L 24.76 40.26 Q 24.337 41.355 23.572 42.12 L 23.572 42.12 L 23.572 42.12 Q 22.808 42.884 21.741 43.296 L 21.741 43.296 L 21.741 43.296 Q 20.674 43.709 19.376 43.709 L 19.376 43.709 L 19.376 43.709 Q 18.067 43.709 16.995 43.296 L 16.995 43.296 L 16.995 43.296 Q 15.922 42.884 15.147 42.12 L 15.147 42.12 L 15.147 42.12 Q 14.371 41.355 13.947 40.26 L 13.947 40.26 L 13.947 40.26 Q 13.524 39.166 13.524 37.802 L 13.524 37.802 L 13.524 37.802 Q 13.524 36.449 13.947 35.366 L 13.947 35.366 L 13.947 35.366 Q 14.371 34.282 15.147 33.523 L 15.147 33.523 L 15.147 33.523 Q 15.922 32.764 16.995 32.357 L 16.995 32.357 L 16.995 32.357 Q 18.067 31.95 19.376 31.95 Z  M 19.376 41.179 L 19.376 41.179 L 19.376 41.179 Q 20.553 41.179 21.108 40.348 L 21.108 40.348 L 21.108 40.348 Q 21.664 39.518 21.664 37.824 L 21.664 37.824 L 21.664 37.824 Q 21.664 36.13 21.108 35.305 L 21.108 35.305 L 21.108 35.305 Q 20.553 34.48 19.376 34.48 L 19.376 34.48 L 19.376 34.48 Q 18.166 34.48 17.605 35.305 L 17.605 35.305 L 17.605 35.305 Q 17.044 36.13 17.044 37.824 L 17.044 37.824 L 17.044 37.824 Q 17.044 39.518 17.605 40.348 L 17.605 40.348 L 17.605 40.348 Q 18.166 41.179 19.376 41.179 Z " fill-rule="evenodd" fill="rgb(24,41,104)"/></g></g><path d=" M 94.236 72.983 C 90.022 72.794 86.008 71.05 82.99 68.07 C 81.782 66.877 80.774 65.52 80 64.045 C 79.226 65.52 78.218 66.877 77.01 68.07 C 73.81 71.23 69.49 73 65 73 C 60.51 73 56.19 71.23 52.99 68.07 C 51.782 66.877 50.774 65.52 50 64.045 C 49.226 65.52 48.218 66.877 47.01 68.07 C 43.81 71.23 39.49 73 35 73 C 30.51 73 26.19 71.23 22.99 68.07 C 21.782 66.877 20.774 65.52 20 64.045 C 19.226 65.52 18.218 66.877 17.01 68.07 C 13.81 71.23 9.49 73 5 73 C 3.291 73 1.607 72.744 0 72.252 L 0 68.011 C 1.572 68.658 3.269 69 5 69 C 8.44 69 11.75 67.65 14.2 65.23 C 16.63 62.83 17.99 59.56 18 56.15 L 18 56.15 C 18 56.15 18 56.15 18 56.15 L 22 56.15 C 22.01 59.56 23.37 62.83 25.8 65.23 C 28.25 67.65 31.56 69 35 69 C 38.44 69 41.75 67.65 44.2 65.23 C 46.63 62.83 47.99 59.56 48 56.15 L 48 56.15 L 52 56.15 C 52.01 59.56 53.37 62.83 55.8 65.23 C 58.25 67.65 61.56 69 65 69 C 68.44 69 71.75 67.65 74.2 65.23 C 76.63 62.83 77.99 59.56 78 56.15 L 78 56.15 C 78 56.15 78 56.15 78 56.15 L 82 56.15 C 82.01 59.56 83.37 62.83 85.8 65.23 C 88.068 67.47 91.073 68.794 94.236 68.978 L 94.236 72.983 Z " fill="rgb(24,41,104)"/><path d=" M 100.236 70.9 L 97.236 72.65 L 94.236 74.4 L 94.236 70.9 L 94.236 67.4 L 97.236 69.15 L 100.236 70.9 Z " fill="rgb(24,41,104)" vector-effect="non-scaling-stroke" stroke-width="1" stroke="rgb(24,41,104)" stroke-linejoin="round" stroke-linecap="round" stroke-miterlimit="3"/></g></g></svg>