<?xml version="1.0" standalone="no"?><!-- Generator: Gravit.io --><svg xmlns="http://www.w3.org/2000/svg" xmlns:xlink="http://www.w3.org/1999/xlink" style="isolation:isolate" viewBox="0 0 480 111.038" width="480" height="111.038"><defs><clipPath id="_clipPath_0o1MYZbp5vqNClLZH6rXTaRWsmBiREQ4"><rect width="480" height="111.038"/></clipPath></defs><g clip-path="url(#_clipPath_0o1MYZbp5vqNClLZH6rXTaRWsmBiREQ4)"><g><g><path d=" M 399.334 32.346 C 386.556 32.346 373.777 27.554 364.193 17.97 C 338.636 -5.99 299.501 -5.99 273.943 17.97 C 265.158 27.554 252.379 32.346 239.601 32.346 C 226.822 32.346 214.043 27.554 204.459 17.97 C 178.902 -5.99 139.767 -5.99 115.008 17.97 C 105.424 27.554 92.646 32.346 79.867 32.346 C 67.088 32.346 54.309 27.554 44.725 17.97 C 32.745 6.789 16.772 0.399 0 0.399 L 0 16.373 C 12.779 16.373 25.557 21.165 35.141 30.749 C 47.121 41.93 63.095 48.319 79.867 48.319 C 96.639 48.319 112.612 41.93 124.592 30.749 C 143.76 11.581 174.908 11.581 194.875 30.749 C 200.865 36.339 207.854 40.732 215.441 43.727 C 223.028 46.722 231.215 48.319 239.601 48.319 C 250.334 48.319 260.741 45.703 269.983 40.887 C 275.182 38.179 280.013 34.774 284.326 30.749 C 303.494 11.581 334.642 11.581 354.609 30.749 C 366.589 41.93 382.562 48.319 399.334 48.319 C 416.106 48.319 432.08 41.93 444.06 30.749 C 453.644 21.165 466.423 16.373 479.201 16.373 L 479.201 0.399 C 462.429 0.399 446.456 6.789 434.476 17.97 C 424.892 27.554 412.113 32.346 399.334 32.346 Z " fill="rgb(24,41,104)"/><path d=" M 399.334 94.666 C 386.556 94.666 373.777 89.874 364.193 80.29 C 338.636 56.329 299.501 56.329 273.943 80.29 C 254.775 99.458 223.627 99.458 203.661 80.29 C 178.103 56.329 138.968 56.329 114.21 80.29 C 95.042 99.458 63.894 99.458 44.725 80.29 C 32.745 69.108 16.772 62.719 0 62.719 L 0 78.692 C 12.779 78.692 25.557 83.484 35.141 93.068 C 60.699 117.028 99.834 117.028 124.592 93.068 C 143.76 73.9 174.908 73.9 194.875 93.068 C 220.433 117.028 259.567 117.028 284.326 93.068 C 303.494 73.9 334.642 73.9 354.609 93.068 C 380.166 117.028 419.301 117.028 444.859 93.068 C 454.443 83.484 466.423 78.692 480 78.692 L 480 62.719 C 463.228 62.719 447.255 69.108 435.275 80.29 C 424.892 89.874 412.113 94.666 399.334 94.666 Z " fill="rgb(3,175,218)"/></g></g></g></svg>